<?xml version="1.0" standalone="no"?>
<!DOCTYPE svg PUBLIC "-//W3C//DTD SVG 20010904//EN"
 "http://www.w3.org/TR/2001/REC-SVG-20010904/DTD/svg10.dtd">
<svg version="1.0" xmlns="http://www.w3.org/2000/svg"
 width="500.000000pt" height="500.000000pt" viewBox="0 0 500.000000 500.000000"
 preserveAspectRatio="xMidYMid meet">

<g transform="translate(0.000000,500.000000) scale(0.100000,-0.100000)"
fill="#000000" stroke="none">
<path d="M2075 3146 c-33 -8 -100 -30 -150 -50 -92 -37 -277 -143 -281 -161
-3 -11 373 -312 384 -307 4 1 45 31 92 66 99 75 234 149 304 165 53 13 114 7
156 -14 26 -13 77 -65 162 -167 72 -85 135 -106 228 -73 57 20 163 92 239 162
l64 58 -103 77 -103 77 -55 -50 c-99 -90 -176 -113 -255 -75 -21 10 -81 57
-135 104 -119 105 -180 146 -257 174 -75 26 -206 33 -290 14z m70 -16 c4 -6
-5 -10 -20 -10 -15 0 -24 4 -20 10 3 6 12 10 20 10 8 0 17 -4 20 -10z m75 0
c0 -5 -6 -10 -14 -10 -8 0 -18 5 -21 10 -3 6 3 10 14 10 12 0 21 -4 21 -10z
m65 0 c3 -5 -1 -10 -9 -10 -8 0 -18 5 -21 10 -3 6 1 10 9 10 8 0 18 -4 21 -10z
m-223 -22 c-9 -9 -15 -9 -24 0 -9 9 -7 12 12 12 19 0 21 -3 12 -12z m-76 -23
c-10 -8 -23 -12 -28 -9 -14 9 2 24 25 24 21 -1 21 -1 3 -15z m445 -12 c13 -16
12 -17 -3 -4 -10 7 -18 15 -18 17 0 8 8 3 21 -13z m-516 -13 c-3 -5 -13 -10
-21 -10 -8 0 -12 5 -9 10 3 6 13 10 21 10 8 0 12 -4 9 -10z m581 -22 l29 -31
-32 22 c-18 12 -33 27 -33 32 0 14 4 11 36 -23z m-646 -7 c0 -11 -31 -24 -39
-16 -3 3 1 10 9 15 19 12 30 12 30 1z m61 -18 c13 -16 12 -17 -3 -4 -10 7 -18
15 -18 17 0 8 8 3 21 -13z m-131 -20 c0 -5 -19 -19 -43 -33 -55 -33 -57 -33
-57 -22 0 6 19 22 43 36 44 27 57 31 57 19z m791 -15 c11 -21 11 -22 -4 -9
-10 7 -17 17 -17 22 0 15 9 10 21 -13z m-580 -35 c13 -16 12 -17 -3 -4 -10 7
-18 15 -18 17 0 8 8 3 21 -13z m1079 7 c0 -5 -5 -10 -11 -10 -5 0 -7 5 -4 10
3 6 8 10 11 10 2 0 4 -4 4 -10z m-449 -17 c13 -16 12 -17 -3 -4 -17 13 -22 21
-14 21 2 0 10 -8 17 -17z m-332 -17 c17 -19 20 -26 9 -32 -7 -4 -10 -3 -5 1 4
5 -3 19 -15 32 -12 13 -19 23 -16 23 2 0 15 -11 27 -24z m751 0 c0 -3 -4 -8
-10 -11 -5 -3 -10 -1 -10 4 0 6 5 11 10 11 6 0 10 -2 10 -4z m-599 -19 c-1
-12 -15 -9 -19 4 -3 6 1 10 8 8 6 -3 11 -8 11 -12z m64 3 c3 -5 2 -10 -4 -10
-5 0 -13 5 -16 10 -3 6 -2 10 4 10 5 0 13 -4 16 -10z m-118 -26 c-3 -4 -14 -3
-24 0 -15 6 -15 8 -3 16 16 10 39 -4 27 -16z m613 6 c0 -5 -5 -10 -11 -10 -5
0 -7 5 -4 10 3 6 8 10 11 10 2 0 4 -4 4 -10z m-660 -20 c0 -11 -30 -21 -42
-14 -7 5 -4 12 7 20 18 13 35 10 35 -6z m385 -10 c10 -11 16 -20 13 -20 -3 0
-13 9 -23 20 -10 11 -16 20 -13 20 3 0 13 -9 23 -20z m235 0 c0 -5 -5 -10 -11
-10 -5 0 -7 5 -4 10 3 6 8 10 11 10 2 0 4 -4 4 -10z m-835 -20 c10 -11 16 -20
13 -20 -3 0 -13 9 -23 20 -10 11 -16 20 -13 20 3 0 13 -9 23 -20z m145 0 c0
-12 -28 -25 -36 -17 -9 9 6 27 22 27 8 0 14 -5 14 -10z m515 -10 c3 -5 2 -10
-4 -10 -5 0 -13 5 -16 10 -3 6 -2 10 4 10 5 0 13 -4 16 -10z m75 -10 c0 -5 -4
-10 -10 -10 -5 0 -10 5 -10 10 0 6 5 10 10 10 6 0 10 -4 10 -10z m380 6 c0 -3
-4 -8 -10 -11 -5 -3 -10 -1 -10 4 0 6 5 11 10 11 6 0 10 -2 10 -4z m-1053 -43
c-9 -9 -20 -12 -28 -8 -9 6 -8 11 6 21 23 17 42 6 22 -13z m-62 -32 c6 -11
-33 -36 -42 -27 -7 7 16 36 28 36 4 0 10 -4 14 -9z m-65 -50 c0 -5 -6 -14 -14
-20 -11 -9 -16 -9 -21 0 -4 6 -1 15 6 20 18 11 29 11 29 0z m720 -22 c15 -28
5 -23 -15 7 -9 15 -12 23 -6 20 6 -4 16 -16 21 -27z m255 -9 c-3 -5 -12 -10
-18 -10 -7 0 -6 4 3 10 19 12 23 12 15 0z m-184 -37 c13 -15 12 -15 -8 -4 -24
12 -29 21 -14 21 5 0 15 -7 22 -17z m119 7 c0 -5 -8 -10 -17 -10 -15 0 -16 2
-3 10 19 12 20 12 20 0z m-60 -10 c12 -8 11 -10 -7 -10 -13 0 -23 5 -23 10 0
13 11 13 30 0z"/>
<path d="M2464 2506 c-12 -31 0 -51 30 -51 36 0 56 26 37 49 -17 20 -60 21
-67 2z"/>
<path d="M1520 2330 l0 -170 35 0 35 0 1 113 0 112 41 -112 c38 -107 42 -113
68 -113 26 0 30 6 66 111 l39 112 3 -112 3 -111 34 0 35 0 0 171 0 170 -47 -3
-46 -3 -43 -125 c-47 -142 -39 -144 -95 28 l-33 102 -48 0 -48 0 0 -170z"/>
<path d="M2840 2330 l0 -170 116 0 115 0 -3 28 c-3 27 -4 27 -80 30 l-78 3 0
139 0 140 -35 0 -35 0 0 -170z"/>
<path d="M3100 2330 l0 -170 30 0 30 0 0 170 0 170 -30 0 -30 0 0 -170z"/>
<path d="M3230 2330 l0 -170 90 0 c115 0 153 15 170 65 15 47 7 79 -29 106
-28 21 -28 22 -10 40 29 29 25 83 -7 108 -23 18 -41 21 -120 21 l-94 0 0 -170z
m170 105 c7 -8 10 -25 6 -39 -5 -21 -13 -25 -56 -28 l-50 -3 0 43 0 42 44 0
c26 0 48 -6 56 -15z m15 -135 c22 -18 18 -56 -7 -74 -12 -9 -42 -16 -65 -16
l-43 0 0 56 0 57 50 -5 c27 -3 56 -11 65 -18z"/>
<path d="M1974 2401 c-50 -31 -68 -108 -40 -175 20 -48 51 -66 114 -66 48 0
58 4 88 34 31 31 34 39 34 96 0 57 -3 65 -34 96 -29 29 -41 34 -82 34 -31 0
-61 -7 -80 -19z m110 -46 c66 -66 -7 -190 -76 -128 -26 23 -25 96 2 123 24 24
53 26 74 5z"/>
<path d="M2182 2412 c2 -5 23 -63 48 -131 l44 -122 40 3 40 3 43 115 c23 63
43 121 43 128 0 7 -12 12 -29 12 -28 0 -31 -4 -55 -77 -29 -85 -41 -110 -48
-97 -3 5 -18 46 -32 92 -28 82 -28 82 -63 82 -19 0 -33 -4 -31 -8z"/>
<path d="M2467 2413 c-2 -5 -5 -63 -6 -130 l-2 -123 36 0 35 0 0 130 0 130
-29 0 c-17 0 -32 -3 -34 -7z"/>
<path d="M2604 2386 c-31 -31 -34 -39 -34 -96 0 -57 3 -65 34 -96 30 -30 40
-34 89 -34 40 0 61 6 81 21 31 25 33 35 6 49 -16 8 -26 7 -42 -5 -31 -21 -64
-19 -88 5 -34 34 -24 40 65 40 l85 0 0 46 c0 37 -5 51 -29 75 -25 25 -37 29
-81 29 -46 0 -56 -4 -86 -34z m130 -38 c15 -24 5 -30 -53 -26 l-52 3 17 23
c19 27 71 27 88 0z"/>
</g>
</svg>
